<svg width="65" height="47" viewBox="0 0 65 47" fill="none" xmlns="http://www.w3.org/2000/svg">
<g opacity="0.1">
<path d="M2.08912 33.5593C0.7963 32.8123 0 31.4326 0 29.9395V4.18879C0 0.9698 3.48524 -1.04156 6.27238 0.568938L28.5493 13.4413C29.8421 14.1883 30.6384 15.568 30.6384 17.0611V42.8112C30.6384 46.0302 27.1532 48.0415 24.3661 46.4311L2.08912 33.5593Z" fill="#BFBFBF"/>
<path d="M58.4644 0.566644C61.2516 -1.04304 64.736 0.968373 64.736 4.18695V29.9388C64.736 31.4323 63.9394 32.8123 62.6461 33.5592L40.3536 46.4334C37.5664 48.043 34.082 46.0316 34.082 42.813V17.0618C34.082 15.5683 34.8786 14.1883 36.1719 13.4414L58.4644 0.566644Z" fill="#BFBFBF"/>
</g>
</svg>
